<svg width="28" height="29" viewBox="0 0 28 29" fill="none" xmlns="http://www.w3.org/2000/svg">
<circle cx="13.8438" cy="14.3438" r="12.3438" fill="#002A4A" stroke="white" stroke-width="3"/>
<path fill-rule="evenodd" clip-rule="evenodd" d="M9.28791 19.8875H9.35091L12.2699 19.6215C12.5897 19.5897 12.8887 19.4488 13.1169 19.2225L19.4169 12.9225C19.926 12.3847 19.9041 11.5363 19.3679 11.0255L17.4499 9.10751C16.9317 8.62076 16.131 8.59969 15.5879 9.05851L9.28791 15.3585C9.06164 15.5867 8.92076 15.8857 8.88891 16.2055L8.58791 19.1245C8.56881 19.3321 8.64323 19.5374 8.79091 19.6845C8.92301 19.8155 9.10184 19.8886 9.28791 19.8875ZM16.4769 10.0875L18.3879 11.9985L16.9879 13.3635L15.1119 11.4875L16.4769 10.0875ZM14.1879 12.4115L10.2469 16.3245L10.0579 18.4175L12.1579 18.2215L16.0779 14.3015L14.1879 12.4115Z" fill="white"/>
</svg>
