<svg width="15" height="19" viewBox="0 0 15 19" fill="none" xmlns="http://www.w3.org/2000/svg">
<path fill-rule="evenodd" clip-rule="evenodd" d="M7.2125 0.409304C4.85526 0.409304 2.9375 2.41045 2.9375 4.87017V6.65452H2.0825C1.13943 6.65452 0.372498 7.4548 0.372498 8.43887V16.4684C0.372498 17.4525 1.13943 18.2528 2.0825 18.2528H12.3425C13.2856 18.2528 14.0525 17.4525 14.0525 16.4684V8.43887C14.0525 7.4548 13.2856 6.65452 12.3425 6.65452H11.4875V4.87017C11.4875 2.41045 9.56973 0.409304 7.2125 0.409304ZM4.6475 4.87017C4.6475 3.39452 5.79833 2.19365 7.2125 2.19365C8.62667 2.19365 9.7775 3.39452 9.7775 4.87017V6.65452H4.6475V4.87017ZM8.0675 16.4684H12.3442L12.3425 8.43887H2.0825V16.4684H6.3575V14.4361C5.84877 14.1265 5.5025 13.5564 5.5025 12.8997C5.5025 11.9157 6.26943 11.1154 7.2125 11.1154C8.15556 11.1154 8.9225 11.9157 8.9225 12.8997C8.9225 13.5573 8.57622 14.1265 8.0675 14.4361V16.4684Z" fill="#616161"/>
</svg>
