<svg width="38" height="39" viewBox="0 0 38 39" fill="none" xmlns="http://www.w3.org/2000/svg">
<ellipse cx="18.5" cy="19.1" rx="18.45" ry="18.6" fill="#FFF2F6"/>
<path fill-rule="evenodd" clipRule="evenodd" d="M15.056 18.3806C15.056 18.3806 14.4848 18.9942 14.2074 17.5326C13.9106 15.97 13.9213 15.122 14.4526 14.9434C14.793 14.829 14.8905 15.1212 14.8905 15.1212L15.056 18.3806Z" fill="#FFD7AF"/>
<path fill-rule="evenodd" clipRule="evenodd" d="M16.2031 20.5832V22.4056C16.2031 22.8571 16.4292 23.2782 16.8033 23.5259C17.4696 23.9671 18.455 24.6171 18.475 24.6174C18.4954 24.6174 19.4992 23.966 20.1769 23.5249C20.5555 23.2784 20.7856 22.8534 20.7856 22.3991V20.4768L16.2031 20.5832Z" fill="#FFD7AF"/>
<path fill-rule="evenodd" clipRule="evenodd" d="M16.2031 21.3956C16.8198 22.0842 17.5921 22.46 18.4484 22.46C19.3474 22.46 20.1551 22.0496 20.7856 21.2938V20.4766L16.2031 20.5832V21.3956Z" fill="#F5CDA5"/>
<path fill-rule="evenodd" clipRule="evenodd" d="M18.468 21.9072C20.5602 21.9072 22.1652 19.6975 22.1652 16.037C22.1652 11.4727 20.8368 10.4123 18.468 10.4123C16.0992 10.4123 14.7708 11.4727 14.7708 16.037C14.7708 19.6975 16.3757 21.9072 18.468 21.9072Z" fill="#FED9AE"/>
<path fill-rule="evenodd" clipRule="evenodd" d="M21.9326 18.3806C21.9326 18.3806 22.5038 18.9942 22.7815 17.5326C23.078 15.97 23.0676 15.122 22.536 14.9434C22.1962 14.829 22.0984 15.1212 22.0984 15.1212L21.9326 18.3806Z" fill="#FFD7AF"/>
<path fill-rule="evenodd" clipRule="evenodd" d="M18.5142 10.4131V21.9043C20.5835 21.8713 22.1651 19.6702 22.1651 16.037C22.1651 11.5024 20.854 10.427 18.5142 10.4131Z" fill="#FFD07F"/>
<path fill-rule="evenodd" clipRule="evenodd" d="M18.4482 9.08463C14.4428 9.08463 13.2162 12.9852 14.751 16.5841H15.1899C15.1899 16.5841 14.8458 13.8053 16.28 12.1648C16.28 12.1648 15.7545 14.6924 18.4944 14.6924C18.4944 14.6924 16.784 13.0856 17.7306 12.1313C17.7306 12.1313 18.2784 14.4246 20.7692 14.4246C20.7692 14.4246 19.9225 13.7049 20.271 12.3491C20.271 12.3491 21.9815 14.9436 21.9315 16.5841H22.3468C23.7305 13.0687 23.0601 9.08463 18.4482 9.08463Z" fill="#584A49"/>
<mask id="mask0_0_111" style="maskType:alpha" maskUnits="userSpaceOnUse" x="10" y="22" width="17" height="7">
<path fill-rule="evenodd" clipRule="evenodd" d="M10.978 22.153H26.0106V28.7598H10.978V22.153Z" fill="white"/>
</mask>
<g mask="url(#mask0_0_111)">
<path fill-rule="evenodd" clipRule="evenodd" d="M24.9531 25.3828C24.8638 25.0979 24.6826 24.8514 24.4384 24.6822L20.7853 22.153C20.7853 22.153 20.2593 23.9807 18.4944 23.9807C16.7297 23.9807 16.2034 22.153 16.2034 22.153L12.5506 24.6822C12.3062 24.8514 12.1252 25.0979 12.036 25.3828L10.978 28.7598H18.2553H18.4681H26.0107L24.9531 25.3828Z" fill="#DB7B13"/>
</g>
</svg>
