<svg width="110" height="109" viewBox="0 0 110 109" fill="none">
<circle cx="55" cy="54.3438" r="54.3438" fill="#FFF2F6"/>
<path fill-rule="evenodd" clipRule="evenodd" d="M47.3088 52.423C47.3088 52.423 46.075 53.7484 45.4759 50.5914C44.8349 47.2162 44.8578 45.3845 46.0056 44.9987C46.7407 44.7516 46.9513 45.3828 46.9513 45.3828L47.3088 52.423Z" fill="#FFD7AF"/>
<path fill-rule="evenodd" clipRule="evenodd" d="M49.7861 57.1806V61.117C49.7861 62.0924 50.2745 63.0018 51.0825 63.537C52.5218 64.4898 54.6502 65.8939 54.6933 65.8945C54.7375 65.8945 56.9055 64.4875 58.3695 63.5347C59.1873 63.0024 59.6842 62.0843 59.6842 61.1031V56.951L49.7861 57.1806Z" fill="#FFD7AF"/>
<path fill-rule="evenodd" clipRule="evenodd" d="M49.7861 58.9355C51.1181 60.4229 52.7863 61.2345 54.6359 61.2345C56.5779 61.2345 58.3224 60.3482 59.6842 58.7156V56.9505L49.7861 57.1808V58.9355Z" fill="#F5CDA5"/>
<path fill-rule="evenodd" clipRule="evenodd" d="M54.6783 60.0406C59.1976 60.0406 62.6643 55.2677 62.6643 47.3608C62.6643 37.502 59.795 35.2116 54.6783 35.2116C49.5617 35.2116 46.6924 37.502 46.6924 47.3608C46.6924 55.2677 50.1591 60.0406 54.6783 60.0406Z" fill="#FED9AE"/>
<path fill-rule="evenodd" clipRule="evenodd" d="M62.1621 52.423C62.1621 52.423 63.3959 53.7484 63.9956 50.5914C64.6361 47.2162 64.6137 45.3845 63.4654 44.9987C62.7314 44.7516 62.5202 45.3828 62.5202 45.3828L62.1621 52.423Z" fill="#FFD7AF"/>
<path fill-rule="evenodd" clipRule="evenodd" d="M54.7783 35.2133V60.0341C59.2482 59.963 62.6644 55.2086 62.6644 47.3608C62.6644 37.5662 59.8324 35.2434 54.7783 35.2133Z" fill="#FFE1B9"/>
<path fill-rule="evenodd" clipRule="evenodd" d="M54.6357 32.3438C45.984 32.3438 43.3345 40.7689 46.6497 48.5427H47.5977C47.5977 48.5427 46.8546 42.5404 49.9523 38.9969C49.9523 38.9969 48.8172 44.4565 54.7355 44.4565C54.7355 44.4565 51.041 40.9859 53.0857 38.9246C53.0857 38.9246 54.269 43.878 59.649 43.878C59.649 43.878 57.8201 42.3235 58.573 39.3949C58.573 39.3949 62.2676 44.9992 62.1597 48.5427H63.0566C66.0453 40.9494 64.5975 32.3438 54.6357 32.3438Z" fill="#584A49"/>
<mask id="mask0_133_2" style="maskType:alpha" maskUnits="userSpaceOnUse" x="38" y="60" width="33" height="15">
<path fill-rule="evenodd" clipRule="evenodd" d="M38.5 60.5714H70.9704V74.8421H38.5V60.5714Z" fill="white"/>
</mask>
<g mask="url(#mask0_133_2)">
<path fill-rule="evenodd" clipRule="evenodd" d="M68.6861 67.5479C68.4933 66.9324 68.1019 66.4001 67.5745 66.0345L59.6838 60.5714C59.6838 60.5714 58.5475 64.5193 54.7353 64.5193C50.9237 64.5193 49.7869 60.5714 49.7869 60.5714L41.8967 66.0345C41.3688 66.4001 40.978 66.9324 40.7851 67.5479L38.5 74.8421H54.2188H54.6785H70.9706L68.6861 67.5479Z" fill="#DB7B13"/>
</g>
</svg>
