<svg width="15" height="16" viewBox="0 0 15 16" fill="none" xmlns="http://www.w3.org/2000/svg">
<path fill-rule="evenodd" clip-rule="evenodd" d="M7.33892 0.441193C5.12978 0.441193 3.33892 2.23205 3.33892 4.44119C3.33892 6.65033 5.12978 8.44119 7.33892 8.44119C9.54806 8.44119 11.3389 6.65033 11.3389 4.44119C11.3389 2.23205 9.54806 0.441193 7.33892 0.441193ZM7.33892 6.84119C6.01343 6.84119 4.93892 5.76668 4.93892 4.44119C4.93892 3.11571 6.01343 2.04119 7.33892 2.04119C8.6644 2.04119 9.73892 3.11571 9.73892 4.44119C9.73892 5.76668 8.6644 6.84119 7.33892 6.84119ZM14.5389 14.8412V15.6412H12.9389V14.8412C12.9389 12.6321 11.1481 10.8412 8.93892 10.8412H5.73892C3.52978 10.8412 1.73892 12.6321 1.73892 14.8412V15.6412H0.138916V14.8412C0.138916 11.7484 2.64612 9.24119 5.73892 9.24119H8.93892C12.0317 9.24119 14.5389 11.7484 14.5389 14.8412Z" fill="black"/>
</svg>
