<svg width="933" height="646" viewBox="0 0 933 646" fill="none" xmlns="http://www.w3.org/2000/svg">
<path d="M66.641 356.679L0.476074 547.214L283.157 645.377L349.322 454.842L66.641 356.679Z" fill="#EBEBEB"/>
<path d="M349.303 454.797C348.188 455.451 347.014 455.998 345.797 456.431L335.534 460.581L297.567 475.433L171.658 523.627L170.611 524.012L170.024 523.076L168.574 520.799L96.0173 405.025L74.2798 369.775L68.4966 360.118C67.7809 359.019 67.1664 357.858 66.6606 356.648C67.5278 357.629 68.2964 358.693 68.9556 359.824L75.1794 369.206L97.6329 404.07L170.887 519.422C171.364 520.212 171.86 520.983 172.319 521.699L170.685 521.148L296.887 473.726L335.167 459.608L345.613 455.936C346.803 455.437 348.039 455.055 349.303 454.797V454.797Z" fill="#E0E0E0"/>
<path d="M0.474827 547.274C0.0892796 546.631 30.419 527.904 68.2026 505.432C105.986 482.961 136.94 465.281 137.326 465.923C137.711 466.566 107.382 485.292 69.5796 507.764C31.7776 530.236 0.860374 547.824 0.474827 547.274Z" fill="#E0E0E0"/>
<path d="M232.115 496.069C232.813 495.83 244.82 529.116 258.92 570.259C273.02 611.403 283.87 645.092 283.154 645.331C282.438 645.57 270.449 612.284 256.349 571.141C242.249 529.997 231.399 496.308 232.115 496.069Z" fill="#E0E0E0"/>
<path d="M900.827 307.086L621.109 354.498L653.066 543.04L932.784 495.629L900.827 307.086Z" fill="#E0E0E0"/>
<path d="M900.801 307.17C900.172 308.22 899.447 309.21 898.634 310.125L892.007 318.259L867.221 347.927C845.943 373.025 816.825 407.375 784.604 445.416L783.925 446.224L783.007 445.709L780.767 444.479L667.636 381.36L633.506 361.972L624.327 356.593C623.219 356.023 622.173 355.34 621.206 354.555C622.375 354.984 623.505 355.512 624.584 356.134L634.039 361.109L668.573 379.763L782.071 442.185L784.31 443.415L782.713 443.708L865.955 346.716L891.346 317.579C894.265 314.33 896.578 311.723 898.341 309.74C899.091 308.819 899.914 307.96 900.801 307.17V307.17Z" fill="#EBEBEB"/>
<path d="M653.041 543.106C652.435 542.739 669.087 513.327 690.237 477.416C711.387 441.505 729.049 412.681 729.655 413.048C730.26 413.415 713.608 442.809 692.458 478.738C671.308 514.667 653.647 543.455 653.041 543.106Z" fill="#EBEBEB"/>
<path d="M822.241 394.891C822.718 394.377 847.944 416.5 878.366 444.332C908.787 472.165 933.242 495.151 932.746 495.739C932.251 496.326 907.153 474.093 876.622 446.297C846.09 418.501 821.69 395.46 822.241 394.891Z" fill="#EBEBEB"/>
<path d="M621.228 7.39205L570.836 135.516L760.928 210.28L811.32 82.1565L621.228 7.39205Z" fill="#EBEBEB"/>
<path d="M811.262 83.8643C810.49 84.2947 809.671 84.6336 808.821 84.8741L801.715 87.4444L775.406 96.5323L688.181 125.907L687.465 126.146L687.098 125.485L686.18 123.906L639.933 42.9229C634.149 32.66 629.449 24.2881 626.09 18.2846L622.418 11.5467C621.951 10.7774 621.558 9.96599 621.243 9.12323C621.812 9.81586 622.316 10.5595 622.748 11.3447C623.74 13.0154 625.061 15.2002 626.732 17.9174L641.089 42.2803C653.133 63.0815 669.638 91.5385 687.85 123.062L688.768 124.659L687.685 124.237L775.058 95.3756L801.495 86.7651L808.71 84.617C809.54 84.2987 810.393 84.047 811.262 83.8643V83.8643Z" fill="#E0E0E0"/>
<path d="M570.791 137.253C570.534 136.813 591.739 124.861 618.14 110.577C644.541 96.2936 666.131 85.0944 666.37 85.535C666.609 85.9757 645.44 97.9276 619.021 112.156C592.602 126.385 571.03 137.712 570.791 137.253Z" fill="#E0E0E0"/>
<path d="M730.187 108.778C730.683 108.631 737.953 131.635 746.417 160.184C754.881 188.733 761.38 211.921 760.884 212.068C760.388 212.215 753.118 189.229 744.654 160.662C736.191 132.094 729.692 108.925 730.187 108.778Z" fill="#E0E0E0"/>
<path d="M251.154 315.762L684.197 312.622L696.259 607.033L247.849 602.884L251.154 315.762Z" fill="#FF992B"/>
<path d="M251.136 315.762L456.1 149.921C460.311 146.518 465.567 144.671 470.981 144.691C476.396 144.711 481.638 146.597 485.824 150.032L684.197 312.622" fill="#FF992B"/>
<g opacity="0.3">
<path opacity="0.3" d="M251.136 315.762L456.1 149.921C460.311 146.518 465.567 144.671 470.981 144.691C476.396 144.711 481.638 146.597 485.824 150.032L684.197 312.622" fill="black"/>
</g>
<path d="M247.849 602.884C247.317 602.37 281.979 564.513 325.289 518.339C368.599 472.165 404.124 435.134 404.675 435.63C405.226 436.126 370.545 473.983 327.235 520.175C283.925 566.367 248.4 603.38 247.849 602.884Z" fill="#263238"/>
<path d="M696.259 607.033C695.708 607.529 661.945 570.443 620.857 524.214C579.769 477.985 546.905 440.091 547.42 439.596C547.934 439.1 581.733 476.186 622.822 522.433C663.91 568.681 696.847 606.538 696.259 607.033Z" fill="#263238"/>
<g opacity="0.5">
<path opacity="0.5" d="M684.197 312.622L466.73 486.339L251.154 315.762" fill="black"/>
</g>
<path d="M272.947 331.845L272.286 196.609L651.462 192.111L655.74 334.415L466.712 484.062L272.947 331.845Z" fill="#FAFAFA"/>
<path d="M272.947 331.844C272.947 331.844 274.177 332.762 276.508 334.58L286.79 342.585L325.987 373.19L467.005 483.75H466.528L655.501 334.048L655.318 334.433C654.51 307.298 653.647 278.804 652.766 249.833C652.197 230.317 651.609 211.04 651.04 192.13L651.517 192.589L272.341 196.903L272.635 196.609C272.782 239.148 272.91 272.948 272.983 296.117C272.983 307.702 272.983 316.625 272.983 322.665V329.513C272.983 331.055 272.983 331.844 272.983 331.844C272.983 331.844 272.983 331.073 272.983 329.55C272.983 328.026 272.983 325.731 272.983 322.738C272.983 316.698 272.855 307.794 272.763 296.227C272.616 273.021 272.396 239.203 272.121 196.609V196.297H272.414L651.609 191.652H652.068V192.13C652.637 211.021 653.206 230.299 653.794 249.815C654.675 278.804 655.52 307.28 656.346 334.433V334.672L656.162 334.819L467.061 484.393L466.822 484.576L466.583 484.393L325.657 373.465L286.698 342.713L276.417 334.635C274.103 332.799 272.947 331.844 272.947 331.844Z" fill="#263238"/>
<path d="M591.537 260.225C591.537 260.482 533.54 261.051 462.03 261.473C390.52 261.895 332.504 262.06 332.504 261.785C332.504 261.51 390.483 260.959 462.03 260.518C533.576 260.078 591.537 259.949 591.537 260.225Z" fill="#263238"/>
<path d="M591.537 298.412C591.537 298.687 533.54 299.257 462.03 299.679C390.52 300.101 332.504 300.248 332.504 299.991C332.504 299.734 390.483 299.165 462.03 298.724C533.576 298.283 591.537 298.155 591.537 298.412Z" fill="#263238"/>
<path d="M591.537 342.456C591.537 342.713 533.54 343.282 462.03 343.723C390.52 344.164 332.504 344.292 332.504 344.017C332.504 343.741 390.483 343.191 462.03 342.768C533.576 342.346 591.537 342.181 591.537 342.456Z" fill="#263238"/>
<path d="M591.537 386.482C591.537 386.757 536.22 387.29 467.978 387.712C399.737 388.134 344.42 388.245 344.401 387.987C344.383 387.73 399.718 387.18 467.978 386.757C536.239 386.335 591.537 386.225 591.537 386.482Z" fill="#263238"/>
<path d="M543.032 425.129C542.535 425.213 542.03 425.25 541.526 425.239L537.157 425.367L521.147 425.624L468.291 426.377C447.655 426.726 428.946 426.836 415.416 426.854H399.406H395.037C394.533 426.863 394.03 426.833 393.531 426.763C394.028 426.678 394.533 426.641 395.037 426.652L399.406 426.542L415.416 426.267L468.272 425.514C488.908 425.165 507.616 425.055 521.129 425.037H537.157H541.526C542.03 425.035 542.532 425.066 543.032 425.129V425.129Z" fill="#263238"/>
<path d="M494.214 462.288C494.214 462.545 481.858 462.765 466.675 462.765C451.492 462.765 439.136 462.545 439.136 462.288C439.136 462.031 451.51 461.811 466.675 461.811C481.84 461.811 494.214 462.013 494.214 462.288Z" fill="#263238"/>
<path d="M621.849 432.289C647.147 432.289 667.655 411.78 667.655 386.482C667.655 361.184 647.147 340.675 621.849 340.675C596.55 340.675 576.042 361.184 576.042 386.482C576.042 411.78 596.55 432.289 621.849 432.289Z" fill="#263238"/>
<path d="M609.933 432.289C635.231 432.289 655.74 411.78 655.74 386.482C655.74 361.184 635.231 340.675 609.933 340.675C584.635 340.675 564.126 361.184 564.126 386.482C564.126 411.78 584.635 432.289 609.933 432.289Z" fill="#455A64"/>
<path d="M615.753 365.167V403.244H608.721V371.023H600.662V365.093L615.753 365.167Z" fill="#EBEBEB"/>
<path d="M275.921 134.83H317.817L312.144 128.331V112.744C312.144 108.692 310.535 104.807 307.67 101.943C304.805 99.078 300.92 97.4686 296.869 97.4686V97.4686C294.864 97.4686 292.878 97.8639 291.026 98.6317C289.174 99.3996 287.491 100.525 286.074 101.944C284.657 103.362 283.534 105.046 282.768 106.9C282.003 108.753 281.61 110.739 281.612 112.744V127.56L275.921 134.83Z" fill="#FF992B"/>
<path d="M291.104 132.774C291.15 133.686 291.389 134.578 291.806 135.391C292.222 136.204 292.806 136.92 293.519 137.49C294.232 138.061 295.058 138.475 295.942 138.703C296.826 138.932 297.749 138.97 298.649 138.816C299.549 138.662 300.407 138.318 301.165 137.809C301.922 137.299 302.564 136.634 303.046 135.859C303.528 135.083 303.841 134.214 303.963 133.309C304.085 132.404 304.014 131.483 303.754 130.607" fill="#FF992B"/>
<path d="M299.201 91.1163H295.088V99.8554H299.201V91.1163Z" fill="#FF992B"/>
<path d="M357.951 106.171C357.826 105.811 357.728 105.443 357.657 105.069C357.473 104.28 357.235 103.234 356.923 101.838C356.539 100.082 356.043 98.3526 355.435 96.6608C355.068 95.6694 354.811 94.5495 354.315 93.4296L352.755 89.8679C349.931 83.8512 346.183 78.3131 341.648 73.4546C335.691 67.1751 328.478 62.2207 320.479 58.914C315.924 56.9964 311.152 55.6401 306.269 54.8749C301.002 54.1073 295.659 54.0209 290.37 54.6179C287.587 54.9106 284.827 55.389 282.108 56.0499C280.731 56.3436 279.391 56.8761 277.995 57.2983C276.594 57.6871 275.225 58.1843 273.901 58.7854C268.276 61.0603 263.042 64.2009 258.388 68.0936C248.058 76.6105 240.777 88.2539 237.642 101.269C235.991 108.242 235.587 115.452 236.448 122.566C237.204 129.925 239.341 137.075 242.746 143.643L243.81 145.644L243.939 145.901V146.176C240.542 157.192 237.238 168.207 234.006 178.727L233.144 177.938L259.379 164.26L259.691 164.095L259.985 164.315C270.953 172.774 284.473 177.25 298.322 177.01C312.171 176.77 325.526 171.827 336.195 162.993C341.665 158.42 346.326 152.958 349.983 146.837C352.906 141.725 355.158 136.258 356.684 130.571C357.713 126.251 358.328 121.843 358.52 117.407C358.52 115.571 358.52 113.992 358.52 112.578C358.52 111.165 358.299 110.045 358.226 109.072C358.153 108.099 358.079 107.456 358.042 106.924C358.014 106.68 358.014 106.433 358.042 106.189C358.107 106.424 358.15 106.663 358.171 106.905C358.171 107.444 358.263 108.16 358.446 109.053C358.557 110.026 358.685 111.183 358.85 112.578C359.015 113.974 358.85 115.608 358.85 117.425C358.748 121.9 358.194 126.354 357.198 130.718C355.732 136.492 353.51 142.048 350.589 147.241C346.931 153.495 342.238 159.083 336.709 163.764C329.939 169.416 322.043 173.56 313.546 175.922C305.05 178.283 296.147 178.808 287.432 177.461C277.174 175.831 267.48 171.687 259.214 165.398H259.838L233.639 179.113L232.317 179.811L232.758 178.323L242.672 145.772V146.305L241.589 144.267C238.116 137.555 235.936 130.249 235.163 122.731C234.265 115.451 234.687 108.068 236.411 100.939C239.623 87.6687 247.066 75.8047 257.617 67.139C262.379 63.1988 267.724 60.0215 273.461 57.7206C274.808 57.1104 276.202 56.607 277.628 56.2151C279.042 55.8112 280.401 55.2788 281.814 54.985C284.573 54.3062 287.377 53.8276 290.205 53.553C295.581 52.961 301.013 53.0721 306.361 53.8835C311.308 54.7036 316.139 56.1088 320.755 58.0694C328.84 61.4738 336.111 66.555 342.088 72.9772C346.625 77.9254 350.343 83.5652 353.104 89.6843C353.636 90.9694 354.15 92.1628 354.609 93.3562C355.068 94.5495 355.344 95.6327 355.692 96.6425C356.288 98.3479 356.748 100.097 357.069 101.875C357.326 103.252 357.547 104.335 357.694 105.143C357.802 105.48 357.888 105.823 357.951 106.171Z" fill="#263238"/>
</svg>
