<svg width="100" height="10" viewBox="0 0 100 10" fill="none" xmlns="http://www.w3.org/2000/svg">
<path fill-rule="evenodd" clipRule="evenodd" d="M0.257551 8.5654C-0.0858503 8.89358 -0.0858502 9.42567 0.257551 9.75386C0.600952 10.082 1.15771 10.082 1.50112 9.75386L10.2061 1.4346C10.5495 1.10642 10.5495 0.574325 10.2061 0.246139C9.86267 -0.0820465 9.3059 -0.0820462 8.9625 0.246139L0.257551 8.5654ZM10.206 8.5654C9.86264 8.89358 9.86264 9.42567 10.206 9.75386C10.5494 10.082 11.1062 10.082 11.4496 9.75386L20.1546 1.4346C20.498 1.10642 20.498 0.574325 20.1546 0.246139C19.8112 -0.0820465 19.2544 -0.0820462 18.911 0.246139L10.206 8.5654ZM20.1545 9.75386C19.8111 9.42567 19.8111 8.89358 20.1545 8.5654L28.8595 0.246139C29.2029 -0.0820462 29.7596 -0.0820465 30.103 0.246139C30.4464 0.574325 30.4464 1.10642 30.103 1.4346L21.3981 9.75386C21.0547 10.082 20.4979 10.082 20.1545 9.75386ZM30.103 8.5654C29.7596 8.89358 29.7596 9.42567 30.103 9.75386C30.4464 10.082 31.0032 10.082 31.3466 9.75386L40.0515 1.4346C40.3949 1.10642 40.3949 0.574325 40.0515 0.246139C39.7081 -0.0820465 39.1514 -0.0820462 38.808 0.246139L30.103 8.5654ZM40.0515 9.75386C39.7081 9.42567 39.7081 8.89358 40.0515 8.5654L48.7565 0.246139C49.0998 -0.0820462 49.6566 -0.0820465 50 0.246139C50.3434 0.574325 50.3434 1.10642 50 1.4346L41.2951 9.75386C40.9517 10.082 40.3949 10.082 40.0515 9.75386ZM50 8.5654C49.6566 8.89358 49.6566 9.42567 50 9.75386C50.3434 10.082 50.9001 10.082 51.2435 9.75386L59.9485 1.4346C60.2919 1.10642 60.2919 0.574325 59.9485 0.246139C59.6051 -0.0820465 59.0483 -0.0820462 58.7049 0.246139L50 8.5654ZM59.9485 9.75386C59.6051 9.42567 59.6051 8.89358 59.9485 8.5654L68.6534 0.246139C68.9968 -0.0820462 69.5536 -0.0820465 69.897 0.246139C70.2404 0.574325 70.2404 1.10642 69.897 1.4346L61.192 9.75386C60.8486 10.082 60.2919 10.082 59.9485 9.75386ZM69.897 8.5654C69.5536 8.89358 69.5536 9.42567 69.897 9.75386C70.2404 10.082 70.7971 10.082 71.1405 9.75386L79.8455 1.4346C80.1889 1.10642 80.1889 0.574325 79.8455 0.246139C79.5021 -0.0820465 78.9453 -0.0820462 78.6019 0.246139L69.897 8.5654ZM79.8454 9.75386C79.502 9.42567 79.502 8.89358 79.8454 8.5654L88.5504 0.246139C88.8938 -0.0820462 89.4506 -0.0820465 89.794 0.246139C90.1374 0.574325 90.1374 1.10642 89.794 1.4346L81.089 9.75386C80.7456 10.082 80.1888 10.082 79.8454 9.75386ZM89.7939 8.5654C89.4505 8.89358 89.4505 9.42567 89.7939 9.75386C90.1373 10.082 90.6941 10.082 91.0375 9.75386L99.7424 1.4346C100.086 1.10642 100.086 0.574325 99.7424 0.246139C99.399 -0.0820465 98.8423 -0.0820462 98.4989 0.246139L89.7939 8.5654Z" fill="white" fill-opacity="0.44"/>
</svg>
